# xmcd
#
# Track frame offsets: 
#        182
#        11785
#        24297
#        37752
#        50712
#        62832
#        74855
#        88785
#        100260
#        110830
#        122620
#        135130
#        146715
#        157377
#        169367
#        180720
#        190637
#        202730
#        213787
#        224825
#        235685
#        247340
#
# Disc length: 3432 seconds
#
# Revision: 0
# Processed by: cddbd v1.4PL0 Copyright (c) Steve Scherf et al.
# Submitted via: ExactAudioCopy v0.90b4
#
DISCID=4d0d6616
DTITLE=Roy Brown - Mighty Mighty Man
DYEAR=1992
DGENRE=Rhythmic Soul
TTITLE0=Mr Hound Dog's In Town
TTITLE1=Bootleggin' Baby
TTITLE2=Trouble At Midnight
TTITLE3=Every Thing's All Right
TTITLE4=This is my last goodbye
TTITLE5=Don't let it rain
TTITLE6=Up jumped the devil
TTITLE7=No love at all
TTITLE8=Ain't it a shame
TTITLE9=Ain't no rocking no more
TTITLE10=Queen of diamonds
TTITLE11=Gal from kokomo
TTITLE12=Fannie brown got married
TTITLE13=Worried life blues
TTITLE14=Black diamond
TTITLE15=Letter to baby
TTITLE16=Shake 'em up baby
TTITLE17=Rinky dinky doo
TTITLE18=Adorable one
TTITLE19=School bell rock
TTITLE20=Ain't got no blues today
TTITLE21=Good lookin and foxy too
EXTD=
EXTT0=
EXTT1=
EXTT2=
EXTT3=
EXTT4=
EXTT5=
EXTT6=
EXTT7=
EXTT8=
EXTT9=
EXTT10=
EXTT11=
EXTT12=
EXTT13=
EXTT14=
EXTT15=
EXTT16=
EXTT17=
EXTT18=
EXTT19=
EXTT20=
EXTT21=
PLAYORDER=
